<svg xmlns="http://www.w3.org/2000/svg" xml:space="preserve" viewBox="0 0 112.3 36.3"><linearGradient id="a" x1="-69.7741" x2="-12.6729" y1="27.9234" y2="27.9234" gradientTransform="matrix(1.0028 -.00004 1.3075 .9971 29.4119 -.06190445)" gradientUnits="userSpaceOnUse"><stop offset="0" stop-color="#d6d6ec"/><stop offset="1" stop-color="#8188c3"/></linearGradient><path fill="url(#a)" d="M36.5 29.8h-4l10.9-9.5h-12l-25 9.5L2.8 33h17L17 35.3h9.1l2.7-2.3h4l3.7-3.2zm-20.7-.1 13.5-5.1h.3l-6.1 5.3h-7.9l.2-.2z"/><linearGradient id="b" x1="-33.574" x2="17.4344" y1="28.671" y2="28.671" gradientTransform="matrix(1.0028 -.00004 1.3075 .9971 29.4119 -.06190445)" gradientUnits="userSpaceOnUse"><stop offset="0" stop-color="#d6d6ec"/><stop offset="1" stop-color="#8188c3"/></linearGradient><path fill="url(#b)" d="M49.7 36.3c-3.2 0-5.6-.3-7.2-.9-1.6-.6-2.3-1.5-2.2-2.7.1-1.2 1.1-2.6 3-4.2s4.2-3 6.7-4.2c2.6-1.1 5.4-2 8.4-2.6 3-.6 6.1-.9 9.3-.9 3.2 0 5.6.3 7.2.9 1.6.6 2.4 1.5 2.3 2.6-.1 1.1-1.1 2.5-3 4.2-1.9 1.7-4.2 3.1-6.8 4.2-2.6 1.2-5.4 2.1-8.5 2.7-2.9.6-6 .9-9.2.9zm3.8-3.3c1.6 0 3.4-.4 5.3-1.1 1.9-.7 3.8-1.9 5.6-3.5 1.2-1 1.9-1.9 2.2-2.5.3-.7.2-1.1-.3-1.5-.5-.2-1.3-.4-2.4-.4-1.6 0-3.4.4-5.2 1.1-1.9.7-3.7 1.8-5.5 3.4-1.2 1-2 1.9-2.3 2.6-.3.7-.2 1.2.3 1.5.5.3 1.3.4 2.3.4z"/><linearGradient id="c" x1="-1.0471" x2="56.0536" y1="27.9234" y2="27.9234" gradientTransform="matrix(1.0028 -.00004 1.3075 .9971 29.4119 -.06190445)" gradientUnits="userSpaceOnUse"><stop offset="0" stop-color="#d6d6ec"/><stop offset="1" stop-color="#8188c3"/></linearGradient><path fill="url(#c)" d="M105.4 29.8h-4l10.9-9.5h-12l-25 9.5-3.6 3.2h17L86 35.3h9.1l2.7-2.3h4l3.6-3.2zm-20.6-.1 13.5-5.1h.3l-6.1 5.3h-7.9l.2-.2z"/><path fill="#38428e" d="M30.1 22.6h-4V.5H14L0 22.6V30h17v5.5h9V30h4v-7.4zm-20.8-.3 7.6-12h.3v12.3H9.3v-.3zm39.9 14c-3.2 0-5.9-.7-8.2-2.2-2.3-1.5-4.1-3.6-5.3-6.3-1.2-2.7-1.9-6-1.9-9.9 0-3.8.6-7.1 1.9-9.8 1.2-2.7 3-4.7 5.3-6.1C43.3.6 46-.1 49.2-.1c3.2 0 5.9.7 8.2 2.1 2.3 1.4 4.1 3.4 5.3 6.1 1.2 2.7 1.9 5.9 1.9 9.8 0 3.9-.6 7.1-1.9 9.9-1.2 2.7-3 4.8-5.3 6.3s-5 2.2-8.2 2.2zm0-7.7c1.6 0 3-.9 4-2.6 1.1-1.7 1.6-4.4 1.6-8.1 0-2.4-.2-4.4-.7-5.9-.5-1.5-1.1-2.7-2-3.4-.8-.7-1.8-1.1-2.9-1.1-1.6 0-3 .8-4 2.5s-1.6 4.3-1.6 7.9c0 2.4.2 4.5.7 6 .5 1.6 1.1 2.7 2 3.5s1.8 1.2 2.9 1.2zm49.6-6h-4V.5H82.9l-14 22.1V30h17v5.5H95V30h4v-7.4zm-20.7-.3 7.6-12h.3v12.3h-7.8v-.3z"/></svg>