<svg xmlns="http://www.w3.org/2000/svg" xml:space="preserve" viewBox="0 0 1024 1024"><path d="M480.2 437.9c23.1 0 42 18.8 42 42s-18.8 42-42 42-42-18.8-42-42 18.9-42 42-42m0-64c-58.5 0-106 47.4-106 106s47.4 106 106 106 106-47.4 106-106-47.5-106-106-106zM773.5 64V0H0v773.5h64V64h645.5m189.3 125.2v-64H125.2v773.5h64V189.2h645.5m-584.2 61.3V1024H1024V250.5H250.5zm709.5 64V695L790.9 525.9 572.3 744.5l-92.1-92.1-165.7 165.8V314.5H960zM314.5 960v-51.3l165.8-165.8 92.1 92.1L791 616.4l169 169.1V960H314.5z"/></svg>