<svg xmlns="http://www.w3.org/2000/svg" xml:space="preserve" viewBox="0 0 64 60"><linearGradient id="a" x1="31.5119" x2="55.6546" y1="24.2137" y2="24.2137" gradientUnits="userSpaceOnUse"><stop offset="0" stop-color="#d6d6ec"/><stop offset="1" stop-color="#8188c3"/></linearGradient><path fill="url(#a)" d="M55.7 48.4 55 0 31.5 24z"/><linearGradient id="b" x1="22.4178" x2="9.2526" y1="39.7076" y2="53.2718" gradientUnits="userSpaceOnUse"><stop offset="0" stop-color="#d6d6ec"/><stop offset="1" stop-color="#8188c3"/></linearGradient><path fill="url(#b)" d="m19.3 36.5-16.7 17L9 60l16.6-17z"/><path fill="#8084c0" d="M61.6 53.8 55 60 2.6 6.5 9 0z"/><path fill="#38428e" d="M9 60H4c-2.2 0-4-1.8-4-4V4c0-2.2 1.8-4 4-4h5v60z"/><path fill="#5762a0" d="M60 60h-5V0h5c2.2 0 4 1.8 4 4v52c0 2.2-1.8 4-4 4z"/></svg>