<svg xmlns="http://www.w3.org/2000/svg" xml:space="preserve" viewBox="0 0 1024 1024"><path d="M544 106.4V0h-64v106.4c-57.4 14.3-100 66.3-100 128.1s42.6 113.7 100 128.1V1024h64V362.5c57.4-14.3 100-66.3 100-128.1s-42.6-113.7-100-128zm-32 196c-37.5 0-68-30.5-68-68s30.5-68 68-68 68 30.5 68 68-30.5 68-68 68zM166 661.5V0h-64v661.5C44.6 675.8 2 727.8 2 789.6s42.6 113.7 100 128.1V1024h64V917.6c57.4-14.3 100-66.3 100-128.1s-42.6-113.7-100-128zm-32 196.1c-37.5 0-68-30.5-68-68s30.5-68 68-68 68 30.5 68 68-30.5 68-68 68zm888-68c0-61.8-42.6-113.7-100-128.1V0h-64v661.5c-57.4 14.3-100 66.3-100 128.1s42.6 113.7 100 128.1V1024h64V917.6c57.4-14.3 100-66.3 100-128zm-132 68c-37.5 0-68-30.5-68-68s30.5-68 68-68 68 30.5 68 68-30.5 68-68 68z"/></svg>